<svg width="32" height="32" viewBox="0 0 32 32" fill="none" xmlns="http://www.w3.org/2000/svg">
<path d="M16 13.5239C16.6312 13.5239 17.1429 14.0355 17.1429 14.6667V21.3334C17.1429 21.9646 16.6312 22.4762 16 22.4762C15.3689 22.4762 14.8572 21.9646 14.8572 21.3334V14.6667C14.8572 14.0355 15.3689 13.5239 16 13.5239Z" fill="#475569"/>
<path d="M16.0001 9.33336C16.7365 9.33336 17.3334 9.93031 17.3334 10.6667C17.3334 11.4031 16.7365 12 16.0001 12C15.2637 12 14.6667 11.4031 14.6667 10.6667C14.6667 9.93031 15.2637 9.33336 16.0001 9.33336Z" fill="#475569"/>
<path fill-rule="evenodd" clip-rule="evenodd" d="M2.85718 16C2.85718 8.74143 8.74143 2.85718 16 2.85718C23.2586 2.85718 29.1429 8.74143 29.1429 16C29.1429 23.2586 23.2586 29.1429 16 29.1429C8.74143 29.1429 2.85718 23.2586 2.85718 16ZM16 5.14289C10.0038 5.14289 5.14289 10.0038 5.14289 16C5.14289 21.9963 10.0038 26.8572 16 26.8572C21.9963 26.8572 26.8572 21.9963 26.8572 16C26.8572 10.0038 21.9963 5.14289 16 5.14289Z" fill="#475569"/>
</svg>
