<svg width="32" height="32" viewBox="0 0 32 32" fill="none" xmlns="http://www.w3.org/2000/svg">
<path fill-rule="evenodd" clip-rule="evenodd" d="M16.3729 4.95435C16.1294 4.88344 15.8707 4.88344 15.6272 4.95435C15.5572 4.97475 15.434 5.02582 15.172 5.22418C14.8965 5.4328 14.5592 5.73136 14.0335 6.19857L7.04738 12.4085C6.1909 13.1698 5.9481 13.3994 5.77932 13.6533C5.61694 13.8975 5.49598 14.1669 5.42129 14.4505C5.34366 14.7454 5.33339 15.0793 5.33339 16.2253V22.8933C5.33339 24.0546 5.33447 24.8441 5.38511 25.454C5.43444 26.0479 5.52379 26.3511 5.63362 26.5625C5.88663 27.0496 6.28375 27.4467 6.7708 27.6997C6.98223 27.8096 7.28541 27.8989 7.87933 27.9482C8.48921 27.9989 9.2787 28 10.4401 28H10.6667V24C10.6667 21.0544 13.0545 18.6666 16.0001 18.6666C18.9456 18.6666 21.3334 21.0544 21.3334 24V28H21.5601C22.7214 28 23.5109 27.9989 24.1208 27.9482C24.7147 27.8989 25.0179 27.8096 25.2293 27.6997C25.7164 27.4467 26.1135 27.0496 26.3665 26.5625C26.4763 26.3511 26.5657 26.0479 26.615 25.454C26.6657 24.8441 26.6667 24.0546 26.6667 22.8933V16.2253C26.6667 15.0793 26.6565 14.7454 26.5788 14.4505C26.5041 14.1669 26.3832 13.8975 26.2208 13.6533C26.052 13.3994 25.8092 13.1698 24.9527 12.4085L17.9666 6.19857C17.441 5.73136 17.1036 5.4328 16.8281 5.22418C16.5661 5.02582 16.443 4.97475 16.3729 4.95435ZM14.8816 2.39405C15.6121 2.18131 16.388 2.18131 17.1185 2.39405C17.6253 2.54165 18.0456 2.80123 18.4378 3.09814C18.8071 3.37776 19.223 3.74748 19.7019 4.17322L26.7244 10.4154C26.7622 10.449 26.7995 10.4822 26.8364 10.5149C27.5319 11.1325 28.0574 11.5991 28.4415 12.177C28.7663 12.6655 29.0082 13.2042 29.1576 13.7715C29.3343 14.4426 29.3339 15.1453 29.3334 16.0755C29.3334 16.1248 29.3334 16.1747 29.3334 16.2253V22.9493C29.3334 24.0406 29.3334 24.9414 29.2725 25.6747C29.2093 26.4365 29.0734 27.1363 28.7329 27.7918C28.2269 28.7659 27.4327 29.5602 26.4586 30.0662C25.8031 30.4067 25.1033 30.5425 24.3415 30.6057C23.6081 30.6666 22.7074 30.6666 21.616 30.6666H21.0734C21.0631 30.6666 21.0526 30.6666 21.042 30.6666C20.8805 30.6667 20.6877 30.6668 20.5179 30.6527C20.3209 30.6363 20.0391 30.5943 19.7448 30.4414C19.3795 30.2517 19.0817 29.9538 18.8919 29.5886C18.739 29.2943 18.697 29.0124 18.6807 28.8155C18.6666 28.6457 18.6667 28.4528 18.6667 28.2913L18.6667 24C18.6667 22.5272 17.4728 21.3333 16.0001 21.3333C14.5273 21.3333 13.3334 22.5272 13.3334 24L13.3334 28.2913C13.3335 28.4528 13.3335 28.6457 13.3194 28.8155C13.3031 29.0124 13.2611 29.2943 13.1082 29.5886C12.9185 29.9538 12.6206 30.2517 12.2553 30.4414C11.9611 30.5943 11.6792 30.6363 11.4823 30.6527C11.3124 30.6668 11.1196 30.6667 10.9581 30.6666C10.9475 30.6666 10.937 30.6666 10.9267 30.6666H10.3841C9.29271 30.6666 8.39198 30.6666 7.65864 30.6057C6.89683 30.5425 6.19705 30.4067 5.54153 30.0662C4.56743 29.5602 3.77319 28.7659 3.26719 27.7918C2.92668 27.1363 2.79086 26.4365 2.72759 25.6747C2.66669 24.9414 2.66671 24.0407 2.66673 22.9493L2.66673 16.2253C2.66673 16.1747 2.6667 16.1248 2.66668 16.0755C2.66619 15.1453 2.66583 14.4426 2.84252 13.7715C2.99189 13.2042 3.23382 12.6655 3.55857 12.177C3.94274 11.5991 4.46819 11.1325 5.16375 10.5149C5.2006 10.4822 5.23793 10.449 5.27574 10.4154L12.2982 4.17324C12.7771 3.74749 13.193 3.37776 13.5624 3.09814C13.9545 2.80123 14.3748 2.54165 14.8816 2.39405Z" fill="#475569"/>
</svg>
