<svg xmlns="http://www.w3.org/2000/svg" width="283" height="293" viewBox="0 0 283 293" fill="none">
    <path fill-rule="evenodd" clip-rule="evenodd" d="M192.347 72.8696C213.909 87.7822 240.952 94.8787 255.66 116.813C272.601 142.078 292.263 179.097 277.399 199.708C261.094 222.318 213.268 189.949 191.007 206.466C166.01 225.012 184.952 286.742 152.789 292.163C124.016 297.012 104.996 247.824 80.1989 225.141C60.3767 207.009 29.5869 196.874 21.6432 172.201C13.5513 147.068 44.6169 130.901 41.7049 105.581C37.9373 72.8207 -11.2588 37.6412 3.16971 11.57C16.6688 -12.8218 60.8362 10.1033 90.9733 16.5568C111.195 20.887 129.47 32.1255 148.482 42.6869C164.138 51.3834 177.444 62.5625 192.347 72.8696Z" fill="url(#paint0_linear_9_972)"/>
    <defs>
    <linearGradient id="paint0_linear_9_972" x1="198.476" y1="52.6031" x2="38.9088" y2="196.698" gradientUnits="userSpaceOnUse">
        <stop stop-color="#BACCFC"/>
        <stop offset="1" stop-color="#7380A3" stop-opacity="0"/>
    </linearGradient>
    </defs>
</svg>