<svg xmlns="http://www.w3.org/2000/svg" width="290" height="291" viewBox="0 0 290 291" fill="none">
    <path fill-rule="evenodd" clip-rule="evenodd" d="M286.098 184.943C263.023 212.451 208.814 157.506 179.654 178.598C148.781 200.93 179.497 265.115 147.211 285.406C121.75 301.407 81.4898 275.971 65.134 250.571C48.3881 224.566 79.3337 188.453 66.6538 160.305C54.8689 134.143 1.42334 135.775 0.564144 107.229C-0.238785 80.5522 44.0855 78.6132 63.6487 60.4623C79.6471 45.6188 82.4449 13.1781 104.326 10.9573C127.67 8.58817 137.509 51.3494 160.977 50.5846C201.965 49.2487 239.055 -18.7572 272.213 5.48562C302.085 27.3258 236.289 71.1701 239.116 107.714C241.475 138.201 305.719 161.553 286.098 184.943Z" fill="url(#paint0_linear_75_231)"/>
    <defs>
    <linearGradient id="paint0_linear_75_231" x1="213.09" y1="-20.3712" x2="87.3192" y2="277.136" gradientUnits="userSpaceOnUse">
        <stop stop-color="#ACCBEE"/>
        <stop offset="1" stop-color="#E7F0FD" stop-opacity="0.5"/>
    </linearGradient>
    </defs>
</svg>