<svg xmlns="http://www.w3.org/2000/svg" width="219" height="182" viewBox="0 0 219 182" fill="none">
    <path fill-rule="evenodd" clip-rule="evenodd" d="M111.879 3.37659C130.054 5.03534 151.594 -1.71929 164.761 10.8661C177.912 23.4368 166.187 46.905 174.382 63.12C185.258 84.6413 217.3 93.9221 218.886 117.963C220.498 142.396 204.83 170.279 182.063 179.532C159.129 188.853 135.353 169.33 111.879 161.452C96.6697 156.348 84.318 147.343 69.3044 141.693C46.1154 132.965 4.40554 143.79 0.278316 119.45C-4.16259 93.2591 45.8591 89.7951 56.3648 65.3808C65.155 44.9532 36.6006 17.1135 51.4529 0.525026C65.2085 -14.8386 91.2951 1.49795 111.879 3.37659Z" fill="url(#paint0_linear_9_964)"/>
    <defs>
    <linearGradient id="paint0_linear_9_964" x1="109.5" y1="-6" x2="109.5" y2="182" gradientUnits="userSpaceOnUse">
        <stop stop-color="#B4D9FB"/>
        <stop offset="1" stop-color="#577A99" stop-opacity="0"/>
    </linearGradient>
    </defs>
</svg>