<svg xmlns="http://www.w3.org/2000/svg" width="226" height="179" viewBox="0 0 226 179" fill="none">
    <path fill-rule="evenodd" clip-rule="evenodd" d="M173.434 -17.8685C198.952 -23.8765 222.343 -39.191 248.48 -35.4063C278.585 -31.047 319.237 -20.8284 324.572 4.01701C330.425 31.2708 274.348 45.0716 271.687 72.663C268.698 103.645 327.208 130.959 309.675 158.463C293.99 183.067 244.737 164.217 211.283 167.418C184.541 169.978 156.383 186.036 132.747 175.396C108.671 164.557 117.493 130.666 96.7495 115.858C69.9106 96.6976 10.8296 109.632 1.15035 81.4504C-7.90539 55.0842 38.7104 37.6689 63.6981 19.6271C80.4644 7.52147 101.054 1.49022 121.634 -5.54202C138.581 -11.3326 155.796 -13.7159 173.434 -17.8685Z" fill="url(#paint0_linear_9_965)"/>
    <defs>
    <linearGradient id="paint0_linear_9_965" x1="162.5" y1="-36" x2="162.5" y2="179" gradientUnits="userSpaceOnUse">
        <stop stop-color="#BACCFC"/>
        <stop offset="1" stop-color="#7380A3" stop-opacity="0"/>
    </linearGradient>
    </defs>
</svg>