<svg xmlns="http://www.w3.org/2000/svg" width="112" height="220" viewBox="0 0 112 220" fill="none">
    <path fill-rule="evenodd" clip-rule="evenodd" d="M8.78854 111.763C9.86675 93.5446 2.42855 72.2312 14.5876 58.6699C26.7325 45.1244 50.5626 56.095 66.508 47.3871C87.6715 35.8297 95.9256 3.5086 119.904 1.15623C144.273 -1.23452 172.642 13.5361 182.616 35.9964C192.664 58.6218 173.908 83.0082 166.784 106.721C162.168 122.086 153.561 134.719 148.392 149.905C140.409 173.361 152.558 214.704 128.362 219.605C102.326 224.879 97.2688 174.994 72.5318 165.272C51.8343 157.138 24.9195 186.566 7.86573 172.25C-7.92883 158.991 7.5674 132.397 8.78854 111.763Z" fill="url(#paint0_linear_9_970)"/>
    <defs>
    <linearGradient id="paint0_linear_9_970" x1="-0.507389" y1="114.44" x2="187.397" y2="108.444" gradientUnits="userSpaceOnUse">
        <stop stop-color="#B4D9FB"/>
        <stop offset="1" stop-color="#577A99" stop-opacity="0"/>
    </linearGradient>
    </defs>
</svg>