<svg xmlns="http://www.w3.org/2000/svg" width="204" height="179" viewBox="0 0 204 179" fill="none">
    <path fill-rule="evenodd" clip-rule="evenodd" d="M250.134 81.8879C262.065 102.124 247.719 127.366 244.867 150.366C241.79 175.175 247.584 204.965 232.669 222.697C217.758 240.425 190.471 232.977 169.379 240.115C147.102 247.653 127.824 275.08 104.932 265.924C81.6204 256.599 69.9449 224.173 62.9634 197.549C57.2446 175.74 80.0692 152.969 70.0519 132.908C55.4506 103.668 2.07556 104.607 0.292716 72.043C-1.231 44.2118 41.7949 47.3859 64.9402 39.542C79.8148 34.501 96.6449 40.6431 111.12 34.4838C128.288 27.1787 137.04 -3.52155 155.705 0.921457C173.807 5.23043 172.185 39.7044 187.226 52.6002C205.777 68.5064 237.26 60.0513 250.134 81.8879Z" fill="url(#paint0_linear_9_973)"/>
    <defs>
    <linearGradient id="paint0_linear_9_973" x1="256.237" y1="99.5309" x2="25.8651" y2="164.799" gradientUnits="userSpaceOnUse">
        <stop stop-color="#CBE3FF"/>
        <stop offset="1" stop-color="#8DA8C8" stop-opacity="0"/>
    </linearGradient>
    </defs>
</svg>