<svg xmlns="http://www.w3.org/2000/svg" width="203" height="117" viewBox="0 0 203 117" fill="none">
    <path fill-rule="evenodd" clip-rule="evenodd" d="M1.06446 20.2211C-2.69289 4.69167 36.6887 10.3641 56.7529 10.575C70.7699 10.7223 84.1522 19.7038 98.3593 21.2438C105.854 22.0562 112.389 19.4951 118.671 17.2865C132.243 12.5147 140.719 -2.8918 156.825 0.68811C170.065 3.63105 166.214 20.5986 174.316 29.655C182.098 38.3548 203.577 42.7496 202.953 52.2564C202.223 63.3916 175.236 61.0989 171.572 71.5008C168.098 81.3613 184.71 92.6015 184.97 103.3C185.336 118.347 191.233 141.013 173.366 145.268C155.553 149.51 140.065 120.843 120.156 118.733C99.2226 116.515 85.0892 142.864 65.9117 133.881C47.0054 125.024 52.4047 102.646 52.8699 87.2132C53.2091 75.9631 76.4062 68.5051 68.2024 57.8963C54.0282 39.567 5.86746 40.0722 1.06446 20.2211Z" fill="url(#paint0_linear_75_234)"/>
    <defs>
    <linearGradient id="paint0_linear_75_234" x1="-3.82359" y1="32.7374" x2="197.278" y2="93.2185" gradientUnits="userSpaceOnUse">
        <stop stop-color="#BCD3FF"/>
        <stop offset="1" stop-color="#C4C4C4" stop-opacity="0"/>
        <stop offset="1" stop-color="#8397E0" stop-opacity="0"/>
    </linearGradient>
    </defs>
</svg>