<svg xmlns="http://www.w3.org/2000/svg" width="242" height="76" viewBox="0 0 242 76" fill="none">
    <path fill-rule="evenodd" clip-rule="evenodd" d="M22.527 50.0763C15.2845 45.4793 -2.24357 42.4368 1.37326 36.5416C5.53908 29.7515 15.9745 20.065 43.4415 15.9867C73.571 11.5131 90.1505 21.5433 120.846 18.8024C155.313 15.7247 184.329 0.277625 215.26 0.64435C242.931 0.972412 223.103 13.4811 227.408 20.0658C230.849 25.3294 249.31 29.2757 238.025 35.4687C226.53 41.7772 188.702 43.9875 172.724 50.076C152.052 57.9536 167.736 68.713 136.662 74.0944C107.59 79.1291 87.2093 71.5008 66.6174 68.4516C52.8006 66.4056 45.6428 62.8381 37.3737 59.3918C30.5647 56.554 27.5327 53.2535 22.527 50.0763Z" fill="url(#paint0_linear_9_971)"/>
    <defs>
    <linearGradient id="paint0_linear_9_971" x1="2.64001" y1="54.5187" x2="241.36" y2="28.842" gradientUnits="userSpaceOnUse">
        <stop stop-color="#BACCFC"/>
        <stop offset="1" stop-color="#7380A3" stop-opacity="0"/>
    </linearGradient>
    </defs>
</svg>